<?xml version="1.0" encoding="UTF-8" standalone="no"?>
<!DOCTYPE svg PUBLIC "-//W3C//DTD SVG 1.1//EN" "http://www.w3.org/Graphics/SVG/1.1/DTD/svg11.dtd">
<svg width="100%" height="100%" viewBox="0 0 3508 473" version="1.1" xmlns="http://www.w3.org/2000/svg" xmlns:xlink="http://www.w3.org/1999/xlink" xml:space="preserve" xmlns:serif="http://www.serif.com/" style="fill-rule:evenodd;clip-rule:evenodd;stroke-linejoin:round;stroke-miterlimit:2;">
    <g transform="matrix(0.973626,0,0,0.994048,104.846,-793.383)">
        <rect x="1569.5" y="780.793" width="1934.13" height="501.125" style="fill:rgb(139,50,56);"/>
    </g>
    <g transform="matrix(1.12334,0,0,1.11836,-299.192,-853.644)">
        <g transform="matrix(400,0,0,400,257.522,1114.88)">
            <path d="M0.07,-0L0.07,-0.667L0.315,-0.667C0.406,-0.667 0.479,-0.634 0.534,-0.57C0.589,-0.506 0.617,-0.426 0.617,-0.332C0.617,-0.238 0.588,-0.159 0.532,-0.095C0.475,-0.032 0.394,-0 0.289,-0L0.07,-0ZM0.193,-0.098L0.293,-0.098C0.347,-0.098 0.393,-0.118 0.43,-0.159C0.468,-0.199 0.486,-0.259 0.486,-0.339C0.486,-0.404 0.47,-0.459 0.437,-0.504C0.405,-0.549 0.361,-0.572 0.308,-0.572L0.193,-0.572L0.193,-0.098Z" style="fill:rgb(139,50,56);fill-rule:nonzero;"/>
        </g>
        <g transform="matrix(400,0,0,400,519.437,1114.88)">
            <path d="M0.506,-0L0.073,-0L0.073,-0.667L0.502,-0.667L0.502,-0.567L0.193,-0.567L0.193,-0.387L0.441,-0.387L0.441,-0.29L0.193,-0.29L0.193,-0.104L0.506,-0.104L0.506,-0Z" style="fill:rgb(139,50,56);fill-rule:nonzero;"/>
        </g>
        <g transform="matrix(400,0,0,400,734.085,1114.88)">
            <path d="M0.577,-0L0.46,-0L0.207,-0.426C0.203,-0.432 0.197,-0.443 0.188,-0.458C0.184,-0.464 0.178,-0.474 0.17,-0.488L0.17,-0L0.073,-0L0.073,-0.667L0.206,-0.667L0.439,-0.274C0.441,-0.271 0.456,-0.247 0.482,-0.202L0.482,-0.667L0.577,-0.667L0.577,-0Z" style="fill:rgb(139,50,56);fill-rule:nonzero;"/>
        </g>
        <g transform="matrix(400,0,0,400,994.046,1114.88)">
            <path d="M0.597,-0L0.463,-0L0.322,-0.339L0.193,-0.168L0.193,-0L0.073,-0L0.073,-0.667L0.193,-0.667L0.193,-0.316C0.209,-0.34 0.22,-0.357 0.227,-0.366L0.448,-0.667L0.569,-0.667L0.411,-0.447L0.597,-0Z" style="fill:rgb(139,50,56);fill-rule:nonzero;"/>
        </g>
        <g transform="matrix(400,0,0,400,1239.55,1114.88)">
            <path d="M0.506,-0L0.073,-0L0.073,-0.667L0.502,-0.667L0.502,-0.567L0.193,-0.567L0.193,-0.387L0.441,-0.387L0.441,-0.29L0.193,-0.29L0.193,-0.104L0.506,-0.104L0.506,-0Z" style="fill:rgb(139,50,56);fill-rule:nonzero;"/>
        </g>
        <g transform="matrix(400,0,0,400,1454.2,1114.88)">
            <path d="M0.593,-0L0.466,-0L0.362,-0.274L0.193,-0.274L0.193,-0L0.073,-0L0.073,-0.667L0.362,-0.667C0.443,-0.667 0.502,-0.648 0.54,-0.612C0.577,-0.576 0.596,-0.529 0.596,-0.471C0.596,-0.386 0.556,-0.327 0.476,-0.294L0.593,-0ZM0.193,-0.37L0.343,-0.37C0.386,-0.37 0.418,-0.379 0.439,-0.397C0.461,-0.416 0.471,-0.441 0.471,-0.473C0.471,-0.502 0.461,-0.526 0.44,-0.544C0.419,-0.562 0.39,-0.571 0.353,-0.571L0.193,-0.571L0.193,-0.37Z" style="fill:rgb(139,50,56);fill-rule:nonzero;"/>
        </g>
    </g>
    <g transform="matrix(1.19479,0,0,1.11836,1369.44,-853.644)">
        <g transform="matrix(400,0,0,400,257.522,1114.88)">
            <path d="M0.608,-0.667L0.536,-0.236C0.527,-0.179 0.515,-0.135 0.5,-0.104C0.486,-0.074 0.459,-0.046 0.421,-0.021C0.382,0.003 0.336,0.015 0.282,0.015C0.249,0.015 0.216,0.01 0.184,-0.001C0.153,-0.013 0.124,-0.033 0.1,-0.064C0.075,-0.094 0.063,-0.135 0.063,-0.187C0.063,-0.212 0.066,-0.244 0.072,-0.281L0.137,-0.667L0.26,-0.667L0.194,-0.274C0.187,-0.232 0.183,-0.204 0.183,-0.189C0.183,-0.154 0.195,-0.128 0.218,-0.112C0.241,-0.096 0.268,-0.088 0.298,-0.088C0.324,-0.088 0.348,-0.093 0.368,-0.104C0.388,-0.114 0.404,-0.13 0.415,-0.151C0.427,-0.173 0.437,-0.211 0.446,-0.265L0.513,-0.667L0.608,-0.667Z" style="fill:white;fill-rule:nonzero;"/>
        </g>
        <g transform="matrix(400,0,0,400,499.515,1114.88)">
            <path d="M0.683,-0L0.563,-0L0.665,-0.607L0.381,-0L0.316,-0L0.226,-0.602L0.125,-0L0.032,-0L0.144,-0.667L0.327,-0.667L0.396,-0.219L0.599,-0.667L0.794,-0.667L0.683,-0Z" style="fill:white;fill-rule:nonzero;"/>
        </g>
        <g transform="matrix(400,0,0,400,818.46,1114.88)">
            <path d="M0.65,0.005L0.53,0.005L0.472,-0.497L0.266,0.005L0.15,0.005L0.072,-0.667L0.201,-0.667L0.246,-0.163L0.45,-0.667L0.569,-0.667L0.622,-0.163L0.825,-0.667L0.93,-0.667L0.65,0.005Z" style="fill:white;fill-rule:nonzero;"/>
        </g>
        <g transform="matrix(400,0,0,400,1166.51,1114.88)">
            <path d="M0.465,-0L0.032,-0L0.143,-0.667L0.564,-0.667L0.547,-0.562L0.245,-0.562L0.216,-0.389L0.466,-0.389L0.45,-0.291L0.2,-0.291L0.168,-0.104L0.482,-0.104L0.465,-0Z" style="fill:white;fill-rule:nonzero;"/>
        </g>
        <g transform="matrix(400,0,0,400,1381.16,1114.88)">
            <path d="M0.432,-0L0.032,-0L0.143,-0.667L0.27,-0.667L0.176,-0.104L0.449,-0.104L0.432,-0Z" style="fill:white;fill-rule:nonzero;"/>
        </g>
        <g transform="matrix(400,0,0,400,1555.18,1114.88)">
            <path d="M0.514,-0.562L0.345,-0.562L0.25,-0L0.128,-0L0.222,-0.562L0.053,-0.562L0.07,-0.667L0.532,-0.667L0.514,-0.562Z" style="fill:white;fill-rule:nonzero;"/>
        </g>
    </g>
</svg>
